<svg xmlns="http://www.w3.org/2000/svg" width="263.052" height="32.192" viewBox="0 0 263.052 32.192"><defs><style>.a{fill:#ca0011;}.b{fill:none;}</style></defs><g transform="translate(0 0)"><path d="M75.209,11.007H64.474L54.261,22.762,53.036,11.007H42.322l-6.343,16.5h7.329l4.475-11.752,1.044,11.752h7.28l9.888-11.492L61.54,27.507h7.329Z"/><path d="M95.267,27.508l.44-1.146-.456-.109A1.411,1.411,0,0,1,94.632,26c-.006-.012-.041-.108.039-.4.162-.5.32-.939.461-1.3l2.041-5.32a2.266,2.266,0,0,0,0-1.9,3.345,3.345,0,0,0-2.3-1.493,27.34,27.34,0,0,0-6.959-.771c-4.163,0-7.357.53-9.486,1.578a6.276,6.276,0,0,0-2.94,2.68l-.311.6h7.061l.125-.173a2.953,2.953,0,0,1,1.15-.933,8.153,8.153,0,0,1,3.239-.491,11.384,11.384,0,0,1,2.845.256c.332.1.4.2.422.229a.29.29,0,0,1-.023.213c-.034.084-.233.385-1.394.606a22.941,22.941,0,0,1-2.587.258l-2.228.127a34.974,34.974,0,0,0-5.973.757c-2.694.67-4.361,1.8-4.958,3.345-.351.913-.395,2.187,1.387,3.065a12.321,12.321,0,0,0,5.329.945,20.928,20.928,0,0,0,4.989-.577,25.446,25.446,0,0,0,2.911-.935l-.012.069a2,2,0,0,0,.188.837l.111.24Zm-15.139-3.57c.172-.446.741-.8,1.695-1.038a20.569,20.569,0,0,1,2.989-.4l1.489-.127c.753-.064,1.358-.133,1.809-.211.2-.031.407-.09.612-.131l-.16.414a3.364,3.364,0,0,1-2.346,1.85,13.834,13.834,0,0,1-3.914.559,4.783,4.783,0,0,1-1.912-.313c-.319-.139-.383-.287-.262-.6"/><path d="M111.863,13.976l1.179-3.066h-7.28l-1.179,3.066Z"/><path d="M111.417,15.145h-7.282l-4.993,13a.974.974,0,0,1-.573.608,3.845,3.845,0,0,1-1.361.195c-.109,0-.24,0-.393-.008l-.746-.025-.292-.012-1.253,3.251.589.008,1.417.02c.387.013.673.013.868.013a15.664,15.664,0,0,0,6.227-.879,5.059,5.059,0,0,0,2.664-2.823Z"/><path d="M134.981,16.644c-1.68-1.294-4.612-1.927-8.954-1.927A23.962,23.962,0,0,0,115.732,16.6c-2.625,1.269-4.3,2.806-4.975,4.573a3.871,3.871,0,0,0,1.556,4.841c1.691,1.278,4.623,1.9,8.96,1.9a24.176,24.176,0,0,0,10.287-1.852c2.616-1.249,4.293-2.8,4.985-4.592.713-1.857.186-3.48-1.564-4.825M118.17,21.469A4.531,4.531,0,0,1,120.518,19a10.06,10.06,0,0,1,4.5-.9,6.007,6.007,0,0,1,3.689.848c.393.323.855.909.348,2.223a4.535,4.535,0,0,1-2.338,2.473,9.93,9.93,0,0,1-4.492.905,6.034,6.034,0,0,1-3.7-.854c-.4-.329-.862-.913-.358-2.229"/><path d="M154.831,14.822c-.1,0-.2-.008-.322-.008a15.7,15.7,0,0,0-5.075.735,14.137,14.137,0,0,0-2.263,1.044l.576-1.5h-6.99l-4.773,12.414h7.327l2.231-5.806a3.82,3.82,0,0,1,1.381-1.869c1.113-.747,2.936-1.126,5.42-1.126.184,0,.429.006.749.015s.665.02,1.047.041l.3.016,1.511-3.928-.584-.019c-.282,0-.459-.008-.534-.01"/><path d="M181.091,21.346l-.121.127a7.919,7.919,0,0,1-2.329,1.732,13.462,13.462,0,0,1-5.808,1.089,8.682,8.682,0,0,1-5.1-1.234c-1.042-.762-1.25-1.9-.643-3.477a7.282,7.282,0,0,1,3.554-3.862,13.435,13.435,0,0,1,6.312-1.395c2.377,0,4.047.322,4.97.95a2.225,2.225,0,0,1,.9,1.45l.07.323h7.562l.084-.3a3.277,3.277,0,0,0-1.282-3.339c-2.014-1.822-5.773-2.7-11.5-2.7a29.775,29.775,0,0,0-11.185,1.965c-3.761,1.521-6.219,3.73-7.311,6.563-1.048,2.723-.393,4.9,1.945,6.47,2.228,1.485,5.8,2.239,10.625,2.239a29.346,29.346,0,0,0,10.23-1.634A13.563,13.563,0,0,0,188.449,22l.481-.655Z"/><path d="M207.219,18.779l1.511-3.928-.581-.019c-.285,0-.461-.008-.537-.01-.094,0-.2-.008-.317-.008a15.769,15.769,0,0,0-5.083.734,14.406,14.406,0,0,0-2.258,1.044l.575-1.5H193.54l-4.774,12.414H196.1l2.231-5.806a3.822,3.822,0,0,1,1.378-1.869c1.116-.747,2.94-1.126,5.416-1.126.191,0,.437.006.756.014s.666.021,1.046.042Z"/><path d="M228.141,15.585a27.343,27.343,0,0,0-6.96-.771c-4.16,0-7.353.53-9.484,1.578a6.276,6.276,0,0,0-2.94,2.68l-.309.6h7.06l.123-.173a2.985,2.985,0,0,1,1.153-.933,8.137,8.137,0,0,1,3.238-.491,11.4,11.4,0,0,1,2.846.256c.331.1.407.2.422.229a.317.317,0,0,1-.023.213c-.033.084-.235.385-1.394.606a22.989,22.989,0,0,1-2.589.258l-2.226.127a35.016,35.016,0,0,0-5.978.757c-2.689.67-4.36,1.8-4.956,3.345-.348.913-.393,2.187,1.392,3.065a12.29,12.29,0,0,0,5.327.945,20.876,20.876,0,0,0,4.985-.577,25.32,25.32,0,0,0,2.911-.935c0,.022-.008.047-.008.069a1.924,1.924,0,0,0,.186.837l.108.24h7.514l.438-1.146-.455-.109A1.4,1.4,0,0,1,227.9,26c-.008-.008-.041-.108.039-.4.162-.5.319-.937.458-1.3l2.043-5.32a2.27,2.27,0,0,0,0-1.9,3.352,3.352,0,0,0-2.3-1.493M213.4,23.938c.17-.446.741-.8,1.7-1.038a20.469,20.469,0,0,1,2.987-.4l1.49-.127c.749-.064,1.357-.133,1.808-.211.2-.031.4-.09.612-.131l-.162.414a3.359,3.359,0,0,1-2.342,1.85,13.834,13.834,0,0,1-3.914.559,4.777,4.777,0,0,1-1.912-.313c-.319-.139-.385-.287-.262-.6"/><path d="M239.314,11.945a.125.125,0,0,1,.033-.016l.008-.007Z"/><path d="M259.076,15.2l1.241-3.235H253.1L251.86,15.2h-7.89l.049-.129.111-.289c.022-.057.116-.209.518-.4a3.923,3.923,0,0,1,1.67-.223c.831.008,1.427.026,1.771.045l.3.022,1.263-3.289-.577-.021-1.331-.047c-.332-.013-.7-.018-1.108-.018-3.629,0-6.012.356-7.289,1.085a4.73,4.73,0,0,0-2.518,2.788l-.187.479h-3.5L232,18.166h3.571l-3.6,9.341h7.259l3.593-9.341h7.885l-2.528,6.594a1.572,1.572,0,0,0,.635,2.1c.966.593,2.976.851,6.129.8l3.054-.053.274,0,1.194-3.106-.618.023c-.209.006-.424.01-.641.014l-.612.008a9.993,9.993,0,0,1-2.027-.112,1.211,1.211,0,0,1,.1-.395s2.068-5.4,2.257-5.878H261.9l1.147-2.97Z"/><path d="M20.562,0,10,27.506h15L35.565,0Z"/><path class="a" d="M10.559,0h5L5,27.506H0Z"/><rect class="b" width="263.051" height="32.192" transform="translate(0 0)"/></g></svg>